<svg version="1.2" xmlns="http://www.w3.org/2000/svg" viewBox="0 0 1026 228" width="1026" height="228"><style>.a{fill:#fff}</style><path class="a" d="m57.2 188l-34.2-133.2h30.8l23.2 95.8 23.8-95 37.4-2.8 25.2 100.6 23.4-98.6h28.6l-36 133.2h-35l-25.8-105.4-26.8 105.4zm177.2 0v-146h28.2v58q6.2-9.2 14.2-13.4 8-4.4 18.4-4.4 16.6 0 26 10 9.4 9.8 9.4 27.4v68.4h-28.2v-64q0-8-4-12.4-4-4.6-10.8-4.6-7.4 0-14.2 5.2-6.6 5-10.8 13.4v62.4zm152 3q-16 0-25.4-13.6-9.4-13.6-9.4-37 0-28.4 14.4-43.2 14.4-15 41.4-15 15.2 0 35.6 4.8v101h-26.8l0.6-16.4h-0.8q-5.2 9.4-12.8 14.4-7.4 5-16.8 5zm6-24.6q6.2 0 12.2-6.6 6-6.6 11.2-17.6v-33.6q-6.4-1.8-12.8-1.8-12 0-18.2 8.2-6 8.2-6 24.2 0 12.6 3.6 20 3.6 7.2 10 7.2zm115.4 24.6q-14.4 0-22.4-7.2-7.8-7.4-7.8-20.8v-53.8h-16v-24.2h16v-22q14.2-2.4 28-3.6v25.6h26v24.2h-26v48.6q0 4.2 2.4 6.4 2.6 2.2 7.2 2.2 5.6 0 12.8-2.6l6.2 21.2q-12.8 6-26.4 6zm47.4-3v-133.2h29v108h48v25.2zm144.6 3q-25 0-39.4-14.4-14.2-14.4-14.2-40 0-16.6 6.2-28.8 6.2-12.4 17.4-19 11.4-6.6 26.6-6.6 22.4 0 34.4 14.4 12 14.4 12 41.6 0 4.6-0.2 6.8h-68q2 10.6 9.2 16.2 7.2 5.4 19.4 5.4 7.4 0 15.4-1.8 8-2 14-5.2l4.6 22.6q-8 4.2-17.8 6.6-9.6 2.2-19.6 2.2zm-25.4-67.2h41.4q-0.6-8.6-6-13.6-5.4-5.2-14.4-5.2-8.6 0-14.2 5-5.4 5-6.8 13.8zm120.2 67.2q-16 0-25.4-13.6-9.4-13.6-9.4-37 0-28.4 14.4-43.2 14.4-15 41.4-15 15.2 0 35.6 4.8v101h-26.8l0.6-16.4h-0.8q-5.2 9.4-12.8 14.4-7.4 5-16.8 5zm6-24.6q6.2 0 12.2-6.6 6-6.6 11.2-17.6v-33.6q-6.4-1.8-12.8-1.8-12 0-18.2 8.2-6 8.2-6 24.2 0 12.6 3.6 20 3.6 7.2 10 7.2zm108.8 24.6q-17.4 0-27.4-13.2-9.8-13.4-9.8-37.2 0-28.2 14.6-43.2 14.8-15.2 42-15.2 3.4 0 10.2 0.4v-40.6h27.8v146h-27.4l0.6-13.4h-0.8q-5.2 8-12.8 12.2-7.4 4.2-17 4.2zm6.4-24.6q6.4 0 12.4-5.4 6-5.6 10.8-15.8v-36.6q-6.8-1.8-13-1.8-12.6 0-19.2 8.2-6.4 8.2-6.4 24 0 12.8 4 20.2 4.2 7.2 11.4 7.2z"/></svg>