<svg xmlns="http://www.w3.org/2000/svg" width="20" height="20" viewBox="0 0 20 20" fill="none">
    <g clip-path="url(#clip0_5595_35446)">
        <path fill-rule="evenodd" clip-rule="evenodd"
            d="M3.08518 12.1744V8.2947H2.29062C1.62596 8.2947 1.07373 8.84258 1.07373 9.51875V10.9504C1.07373 11.6266 1.62596 12.1744 2.29062 12.1744H3.08518ZM16.9148 8.2947V12.1744H17.7094C18.374 12.1744 18.9263 11.6266 18.9263 10.9504V9.51875C18.9263 8.84257 18.374 8.2947 17.7094 8.2947H16.9148ZM2.76807 13.2482H2.29062C1.03078 13.2482 0 12.2174 0 10.9504V9.51875C0 8.25175 1.03078 7.22097 2.29062 7.22097H2.76378C3.12455 3.54524 6.23193 0.664062 10 0.664062C13.7681 0.664062 16.8754 3.54524 17.2362 7.22097H17.7094C18.9692 7.22097 20 8.25175 20 9.51875V10.9504C20 12.2174 18.9692 13.2482 17.7094 13.2482H16.5569C16.1632 13.2482 15.8411 12.9261 15.8411 12.5324V7.93679C15.8411 4.71632 13.2212 2.09642 10 2.09642C6.77881 2.09642 4.15891 4.71632 4.15891 7.93679V12.5324C4.15891 15.0313 5.95777 17.1143 8.32713 17.5646C8.51539 17.4021 8.75805 17.2997 9.02649 17.2997H10.9742C11.5669 17.2997 12.048 17.78 12.048 18.3734C12.048 18.9669 11.5669 19.4472 10.9742 19.4472H9.02649C8.65999 19.4472 8.33787 19.2632 8.14388 18.9833C5.30136 18.4815 3.08447 16.1494 2.76807 13.2482Z"
            fill="#9AA1B2" />
    </g>
    <defs>
        <clipPath id="clip0_5595_35446">
            <rect width="20" height="20" fill="white" transform="translate(20 20) rotate(-180)" />
        </clipPath>
    </defs>
</svg>