<svg width="19" height="9" viewBox="0 0 19 9" fill="none" xmlns="http://www.w3.org/2000/svg">
<path id="Vector" d="M18.2631 2.51275C18.0558 2.02274 17.7592 1.58278 17.3815 1.20512C17.0039 0.827471 16.564 0.530901 16.0739 0.323606C15.5663 0.108879 15.0273 0 14.4722 0C13.9143 0 13.2803 0.204331 12.5338 0.624601C11.9921 0.92957 11.3916 1.35047 10.7489 1.87564C10.1583 2.35822 7.53868 4.88884 6.98972 5.33671C6.40756 5.81168 5.87203 6.18753 5.39801 6.45384C4.73407 6.82686 4.33356 6.90516 4.11445 6.90516C2.57571 6.90516 1.32382 5.65329 1.32382 4.1145C1.32382 2.57576 2.57571 1.32386 4.11445 1.32386C4.33356 1.32386 4.73407 1.40216 5.39801 1.77521C5.87201 2.04151 6.40756 2.41737 6.98975 2.89231C7.31822 3.1603 7.62443 3.42988 7.8886 3.67222L8.33249 3.20386C8.35196 3.18329 8.52752 2.99879 8.81179 2.72213C8.52851 2.46162 8.19723 2.16938 7.83778 1.87569C7.19506 1.35051 6.59456 0.929614 6.05286 0.624645C5.30635 0.204353 4.67232 4.52258e-05 4.11448 4.52258e-05C3.55933 4.52258e-05 3.02041 0.108946 2.51273 0.323651C2.02272 0.530923 1.58275 0.827494 1.20512 1.20517C0.827472 1.58282 0.5309 2.02278 0.323628 2.51279C0.108902 3.02045 0 3.55937 0 4.11452C0 4.66969 0.108902 5.20861 0.323628 5.71629C0.530878 6.20631 0.827449 6.64627 1.20512 7.02392C1.58275 7.40157 2.02272 7.69814 2.51273 7.90544C3.02041 8.12016 3.55933 8.22904 4.11448 8.22904C4.67232 8.22904 5.30638 8.02471 6.05286 7.60444C6.59456 7.29945 7.19506 6.87853 7.83778 6.3534C8.42839 5.87082 11.048 3.34018 11.5969 2.89231C12.1791 2.41737 12.7146 2.04151 13.1887 1.77521C13.8526 1.40218 14.2531 1.32386 14.4722 1.32386C16.011 1.32386 17.2629 2.57576 17.2629 4.1145C17.2629 5.65329 16.011 6.90516 14.4722 6.90516C14.2531 6.90516 13.8526 6.82689 13.1887 6.45384C12.7147 6.18753 12.1791 5.81168 11.5969 5.33671C11.2685 5.0687 10.9622 4.79914 10.6981 4.5568L10.2542 5.02516C10.2347 5.04573 10.0591 5.23032 9.77491 5.50691C10.0582 5.76742 10.3894 6.05964 10.7489 6.35336C11.3916 6.87849 11.9921 7.29941 12.5338 7.6044C13.2803 8.02469 13.9143 8.229 14.4722 8.229C15.0273 8.229 15.5663 8.1201 16.0739 7.90539C16.564 7.69812 17.0039 7.40155 17.3815 7.02387C17.7592 6.6462 18.0558 6.20626 18.2631 5.71625C18.4778 5.20857 18.5867 4.66965 18.5867 4.11448C18.5867 3.55933 18.4778 3.02041 18.2631 2.51275Z" fill="#5D667C"/>
</svg>
